<svg xmlns="http://www.w3.org/2000/svg" viewBox="0 0 200 200"><defs><style>.cls-1{fill:#36bc9b;}.cls-2{fill:none;stroke:#fff;stroke-linecap:round;stroke-linejoin:round;stroke-width:3px;}</style></defs><title>Icon_Gesundheit C</title><g id="gesundheit-c"><circle id="fill" class="cls-1" cx="100" cy="100" r="100"/><g id="lines"><path class="cls-2" d="M100,151.92a3.79,3.79,0,0,0,2.7-1.12s31.16-32.42,41.11-42.37c27.26-27.27,8.19-55.26-16-55.26-10.9,0-23.13,9.75-26.63,19.26a1.24,1.24,0,0,1-1.18.83m0,0a1.24,1.24,0,0,1-1.18-.83c-3.5-9.51-15.73-19.26-26.63-19.26-24.19,0-43.26,28-16,55.26,10,9.95,41.11,42.37,41.11,42.37a3.79,3.79,0,0,0,2.7,1.12"/><polygon class="cls-2" points="119.85 98.75 106.14 98.75 106.14 85.03 93.86 85.03 93.86 98.75 80.15 98.75 80.15 111.02 93.86 111.02 93.86 124.73 106.14 124.73 106.14 111.02 119.85 111.02 119.85 98.75"/></g></g></svg>