<svg xmlns="http://www.w3.org/2000/svg" viewBox="0 0 200 200"><defs><style>.cls-1{fill:#ff8000;}.cls-2{fill:none;stroke:#fff;stroke-linecap:round;stroke-linejoin:round;stroke-width:3px;}</style></defs><title>Icon_Außenpolitik - C</title><g id="aussen-c"><circle id="fill" class="cls-1" cx="100" cy="100" r="100"/><g id="lines"><path class="cls-2" d="M99.14,145.6a2.36,2.36,0,0,1-1.92-2.24l-1.06-.79L94,143.83l-1.44-.75,0-.47a26.41,26.41,0,0,1-6-2.88h0c.42.42.36,1-.16,1.63-13.62,5.87-6.82-8.41-4.06-15.57C78,124.24,73,123.5,70.85,120c-4.33-4.56-4.66-16.8-2.08-21.81-2.19-5.19-1.11-9,5.12-8.82a8.38,8.38,0,0,0,1.72-4.69c-2.57-1.45-2.41-3,.39-4.25l.9-6.51c-2.05-5.32,3.76-7.84,8.38-4a1.73,1.73,0,0,1,2.16.85l.09-.35c-2-2.65-.93-3.92,2.53-3.88L89.61,63l-1.24.28-1-1.46,1.75-2.73-1.56-3,1-1.39c4.9-.24,9,.65,9.61,4.83l.94.5a16.2,16.2,0,0,1,6.72.39l.53,1.65A3.19,3.19,0,0,1,104.81,65a1.86,1.86,0,0,1,2.31.34l.45-.85h0l-.09-.23c5.36-3.34,9.55-3.46,14,1.22l1.44-.54,1.28,1.08c3.4,5.3,15,36.21,5.23,35.49-3.26,4.23-9.12,7.24-13.75,10.24,1.27.88,1.79,2,1.23,3.37a.87.87,0,0,1,0,.89l10.68,11.75-.33,1.53-2.43,1.06c-.11,2.28-1.94,3.84-4.39,4.51l1.11,4,.72.14c-.28,4.3-2.66,4.73-6.37,2-3.84,2.36-7.74,3.4-11.18,1.47l-3.11.11A2.69,2.69,0,0,1,99.14,145.6Z"/><line class="cls-2" x1="40.28" y1="52.91" x2="53.49" y2="66.13"/><line class="cls-2" x1="40.28" y1="52.91" x2="51.78" y2="54.62"/><line class="cls-2" x1="40.28" y1="52.91" x2="41.99" y2="64.42"/><line class="cls-2" x1="160.76" y1="52.91" x2="147.55" y2="66.13"/><line class="cls-2" x1="160.76" y1="52.91" x2="149.26" y2="54.62"/><line class="cls-2" x1="160.76" y1="52.91" x2="159.05" y2="64.42"/><line class="cls-2" x1="40.28" y1="147.09" x2="53.49" y2="133.87"/><line class="cls-2" x1="40.28" y1="147.09" x2="51.78" y2="145.38"/><line class="cls-2" x1="40.28" y1="147.09" x2="41.99" y2="135.58"/><line class="cls-2" x1="160.76" y1="147.09" x2="147.55" y2="133.87"/><line class="cls-2" x1="160.76" y1="147.09" x2="149.26" y2="145.38"/><line class="cls-2" x1="160.76" y1="147.09" x2="159.05" y2="135.58"/></g></g></svg>