<svg xmlns="http://www.w3.org/2000/svg" viewBox="0 0 200 200"><defs><style>.cls-1{fill:#ff8066;}.cls-2{fill:none;stroke:#fff;stroke-linecap:round;stroke-linejoin:round;stroke-width:3px;}</style></defs><title>Icon_Inneres &amp;amp; Recht -C</title><g id="inneres-c"><circle id="fill" class="cls-1" cx="100" cy="100" r="100"/><g id="lines"><path class="cls-2" d="M44.89,104.62a14.82,14.82,0,0,0,27.65,0Z"/><polygon class="cls-2" points="72.54 104.62 58.72 75.55 44.89 104.62 72.54 104.62"/><path class="cls-2" d="M127.46,104.64a14.82,14.82,0,0,0,27.65,0Z"/><polygon class="cls-2" points="155.11 104.64 141.28 75.57 127.46 104.64 155.11 104.64"/><polygon class="cls-2" points="100 60.13 94.58 51.22 100 42.31 105.42 51.22 100 60.13"/><polygon class="cls-2" points="130.26 153.26 70.52 153.26 77.47 140.72 122.53 140.72 130.26 153.26"/><circle class="cls-2" cx="100" cy="75.57" r="5.71"/><line class="cls-2" x1="94.29" y1="75.57" x2="58.72" y2="75.57"/><line class="cls-2" x1="141.28" y1="75.57" x2="105.71" y2="75.57"/><line class="cls-2" x1="100" y1="140.72" x2="100" y2="81.27"/><line class="cls-2" x1="100" y1="60.04" x2="100" y2="69.86"/></g></g></svg>