<svg xmlns="http://www.w3.org/2000/svg" viewBox="0 0 200 200"><defs><style>.cls-1{fill:#455c7b;}.cls-2{fill:none;stroke:#fff;stroke-linecap:round;stroke-linejoin:round;stroke-width:3px;}</style></defs><title>Icon_Infrastruktur - C</title><g id="infrastruktur-c"><circle id="fill" class="cls-1" cx="100" cy="100" r="100"/><g id="lines"><circle class="cls-2" cx="113.79" cy="154.31" r="6.89"/><circle class="cls-2" cx="149.92" cy="154.31" r="6.89"/><path class="cls-2" d="M156.8,133.21s-6.35-17.5-14.18-17.5H121.53c-7.83,0-15.11,17.5-15.11,17.5h-9.1v18.51H107.4a6.9,6.9,0,0,1,11-2.52,6.75,6.75,0,0,1,1.76,2.52h23.37a6.75,6.75,0,0,1,1.76-2.52,6.9,6.9,0,0,1,11,2.52h9.59V133.21Z"/><line class="cls-2" x1="106.42" y1="133.21" x2="156.8" y2="133.21"/><path class="cls-2" d="M69.39,62.56a7.29,7.29,0,0,1,5.67,2.71c6.1-10.7-5.67-44-5.67-44s-11.25,33-5.55,43.84A7.27,7.27,0,0,1,69.39,62.56Z"/><path class="cls-2" d="M62.09,69.85a7.2,7.2,0,0,1,.64-3C50.41,67,27.49,93.79,27.49,93.79S60.92,87.18,68,77A7.31,7.31,0,0,1,62.09,69.85Z"/><path class="cls-2" d="M111.29,93.79S88.39,67.6,76.13,67.06a7.28,7.28,0,0,1-5.56,10C77.32,87.48,111.29,93.79,111.29,93.79Z"/><path class="cls-2" d="M70.57,77.05a7.72,7.72,0,0,1-1.18.1A7.47,7.47,0,0,1,68,77a11.34,11.34,0,0,1-1.31,1.53l-4.82,81.58,15-.08L72.11,78.92A11.3,11.3,0,0,1,70.57,77.05Z"/></g></g></svg>