<svg id="icon-buch" class="icon" data-name="Ebene 1" xmlns="http://www.w3.org/2000/svg" viewBox="0 0 200 200">
	<path class="cls-2" d="M159,65.2V144H41V65.2H159m0-6H41a6,6,0,0,0-6,6V144a6,6,0,0,0,6,6H159a6,6,0,0,0,6-6V65.2a6,6,0,0,0-6-6Z"/>
	
	<path class="cls-1" d="M100,147a2.81,2.81,0,0,1-.65-.07l-46-10.2A3,3,0,0,1,51,133.8V55a3,3,0,0,1,3-3,2.88,2.88,0,0,1,.65.07L100,62.13l45.35-10.06A2.88,2.88,0,0,1,146,52a3,3,0,0,1,3,3v78.8a3,3,0,0,1-2.35,2.93l-46,10.2A2.81,2.81,0,0,1,100,147Z"/>
	
	<path class="cls-2" d="M146,55v78.8L100,144,54,133.8V55l46,10.2L146,55m0-6a6.39,6.39,0,0,0-1.3.14L100,59.05,55.3,49.14A6.39,6.39,0,0,0,54,49a6,6,0,0,0-6,6v78.8a6,6,0,0,0,4.7,5.86l46,10.2a6.11,6.11,0,0,0,2.6,0l46-10.2a6,6,0,0,0,4.7-5.86V55a6,6,0,0,0-6-6Z"/>
	
	<line class="cls-3" x1="100" y1="65.2" x2="100" y2="144"/>
</svg>