<?xml version="1.0" encoding="utf-8"?>
<!-- Generator: Adobe Illustrator 22.1.0, SVG Export Plug-In . SVG Version: 6.00 Build 0)  -->
<svg version="1.1" id="Ebene_1" xmlns="http://www.w3.org/2000/svg" xmlns:xlink="http://www.w3.org/1999/xlink" x="0px" y="0px"
	 viewBox="0 0 317.6 308.1" width="100%" height="100%" xml:space="preserve">
<g>
	<path d="M154.8,3c29.4,0,57,11.4,77.8,32.2s32.2,48.4,32.2,77.8s-11.4,57-32.2,77.8c-20.8,20.8-48.4,32.2-77.8,32.2
		s-57-11.4-77.8-32.2C56.2,170,44.8,142.4,44.8,113S56.2,56,77,35.2S125.4,3,154.8,3 M154.8,0c-62.4,0-113,50.6-113,113
		s50.6,113,113,113s113-50.6,113-113S217.2,0,154.8,0L154.8,0z"/>
</g>
<g>
	<g>
		<path d="M21,298.3c-3,0-4.2-1.8-4.5-4.1h-0.2c-1.1,2.9-3.5,4.7-7.6,4.7c-5.3,0-8.7-2.9-8.7-7.7c0-4.7,3.3-7.3,10.9-7.3h5.4v-2.5
			c0-3.7-2.2-5.6-6-5.6c-3.4,0-5.4,1.4-6.8,3.7l-2.6-2c1.3-2.6,4.5-5.1,9.7-5.1c5.9,0,9.7,3.2,9.7,8.5v13.9h3.5v3.4H21z M16.3,290.9
			v-4.2h-5.4c-4.7,0-6.8,1.4-6.8,3.8v1c0,2.6,2,4,5.2,4C13.4,295.6,16.3,293.5,16.3,290.9z"/>
	</g>
	<g>
		<path d="M31.9,262h3.9v15.1H36c1.6-3.1,4.3-4.7,7.8-4.7c6.2,0,9.9,4.9,9.9,13.2s-3.7,13.2-9.9,13.2c-3.5,0-6.2-1.6-7.8-4.7h-0.2
			v4.1h-3.9V262z M49.5,287.8v-4.3c0-4.6-2.6-7.6-7.2-7.6c-3.5,0-6.5,1.8-6.5,5.2v9.1c0,3.4,3,5.2,6.5,5.2
			C46.8,295.4,49.5,292.3,49.5,287.8z"/>
	</g>
	<g>
		<path d="M62.4,262h3.9v15.1h0.2c1.6-3.1,4.3-4.7,7.8-4.7c6.2,0,9.9,4.9,9.9,13.2s-3.7,13.2-9.9,13.2c-3.5,0-6.2-1.6-7.8-4.7h-0.2
			v4.1h-3.9V262z M80,287.8v-4.3c0-4.6-2.6-7.6-7.2-7.6c-3.5,0-6.5,1.8-6.5,5.2v9.1c0,3.4,3,5.2,6.5,5.2
			C77.3,295.4,80,292.3,80,287.8z"/>
	</g>
	<g>
		<path d="M111.1,273h3.9l-12.5,30.8c-1.2,2.9-2.6,4.3-6.5,4.3h-3.7v-3.3h5.9l2.8-7L90.8,273h4l4.3,10.6l3.8,9.6h0.2l3.8-9.6
			L111.1,273z"/>
	</g>
	<g>
		<path d="M143.2,298.3V273h3.9v4.1h0.2c1.1-2.5,3-4.7,7.2-4.7c5.3,0,8.8,3.5,8.8,9.7v16.2h-3.9v-15.5c0-4.6-2.1-6.9-6-6.9
			c-3.1,0-6.3,1.5-6.3,4.9v17.5H143.2z"/>
	</g>
	<g>
		<path d="M172.1,285.6c0-8,4.4-13.2,11.5-13.2s11.5,5.2,11.5,13.2c0,8-4.4,13.2-11.5,13.2S172.1,293.7,172.1,285.6z M190.8,287.4
			v-3.6c0-5.4-2.9-8-7.3-8c-4.4,0-7.3,2.6-7.3,8v3.6c0,5.4,2.9,8,7.3,8C187.9,295.5,190.8,292.9,190.8,287.4z"/>
	</g>
	<g>
		<path d="M203.1,294.9h7.4v-18.6h-7.4V273h11.3v4.5h0.2c1-2.4,3.4-4.5,7.6-4.5h4.5v3.9h-5.2c-4.4,0-7.1,1.8-7.1,4.2v13.9h9.8v3.3
			h-21.1V294.9z"/>
	</g>
	<g>
		<path d="M231.3,273h3.5l2.9,21.9h0.4l4.3-21.9h4.3l4.3,21.9h0.4l2.9-21.9h3.4l-3.9,25.3h-5.1l-4-21.2h-0.4l-4.1,21.2h-5.1
			L231.3,273z"/>
	</g>
	<g>
		<path d="M284.5,298.3c-3,0-4.2-1.8-4.5-4.1h-0.2c-1.1,2.9-3.5,4.7-7.6,4.7c-5.3,0-8.7-2.9-8.7-7.7c0-4.7,3.3-7.3,10.9-7.3h5.4
			v-2.5c0-3.7-2.2-5.6-6-5.6c-3.4,0-5.4,1.4-6.8,3.7l-2.6-2c1.3-2.6,4.5-5.1,9.7-5.1c5.9,0,9.7,3.2,9.7,8.5v13.9h3.5v3.4H284.5z
			 M279.8,290.9v-4.2h-5.4c-4.7,0-6.8,1.4-6.8,3.8v1c0,2.6,2,4,5.2,4C276.9,295.6,279.8,293.5,279.8,290.9z"/>
	</g>
	<g>
		<path d="M313.6,273h3.9L305,303.8c-1.2,2.9-2.6,4.3-6.5,4.3h-3.7v-3.3h5.9l2.8-7L293.4,273h4l4.3,10.6l3.8,9.6h0.2l3.8-9.6
			L313.6,273z"/>
	</g>
</g>
<g>
	<g>
		<path d="M186.8,93c-0.2,0-0.4,0-0.6-0.1c-13-5.1-25-27.1-28.9-35c-4,7.9-16,29.8-28.9,35c-0.8,0.3-1.6-0.1-1.9-0.8
			c-0.3-0.8,0.1-1.6,0.8-1.9c14.4-5.7,28.5-35.9,28.7-36.2c0.2-0.5,0.8-0.9,1.4-0.9s1.1,0.3,1.4,0.9c0.1,0.3,14.3,30.5,28.7,36.2
			c0.8,0.3,1.1,1.2,0.8,1.9C187.9,92.6,187.4,93,186.8,93z"/>
	</g>
	<g>
		<path d="M190.8,128c-0.2,0-0.3,0-0.5-0.1c-14.9-5.2-28.7-27.8-33-35.3c-4.3,7.5-18.1,30.1-33,35.3c-0.8,0.3-1.6-0.1-1.9-0.9
			c-0.3-0.8,0.1-1.6,0.9-1.9c16.4-5.7,32.5-36,32.7-36.3c0.3-0.5,0.8-0.8,1.3-0.8s1.1,0.3,1.3,0.8c0.2,0.3,16.2,30.5,32.7,36.3
			c0.8,0.3,1.2,1.1,0.9,1.9C192,127.6,191.4,128,190.8,128z"/>
	</g>
	<g>
		<path d="M194.3,161c-0.1,0-0.3,0-0.5-0.1c-16.6-5.2-32-28.3-36.5-35.5c-4.5,7.2-20,30.3-36.5,35.5c-0.8,0.3-1.6-0.2-1.9-1
			c-0.2-0.8,0.2-1.6,1-1.9c18.2-5.8,36-36,36.2-36.3c0.3-0.5,0.8-0.7,1.3-0.7c0.5,0,1,0.3,1.3,0.7c0.2,0.3,17.9,30.6,36.2,36.3
			c0.8,0.2,1.2,1.1,1,1.9C195.5,160.6,194.9,161,194.3,161z"/>
	</g>
</g>
</svg>
