<svg xmlns="http://www.w3.org/2000/svg" viewBox="0 0 200 200"><defs><style>.cls-1{fill:#d870ad;}.cls-2{fill:none;stroke:#fff;stroke-linecap:round;stroke-linejoin:round;stroke-width:3px;}</style></defs><title>Icon_Familie &amp;amp; Gesellschaft - C</title><g id="gesellschaft-c"><circle id="fill" class="cls-1" cx="100" cy="100" r="100"/><g id="lines"><circle class="cls-2" cx="100" cy="122.12" r="10.25"/><path class="cls-2" d="M120.88,145.92c-3.39-8.71-6.37-14.32-14.53-15.77a10.19,10.19,0,0,1-12.7,0c-8.16,1.45-11.14,7.06-14.53,15.77a3.87,3.87,0,0,0,3.61,5.27h34.54A3.87,3.87,0,0,0,120.88,145.92Z"/><circle class="cls-2" cx="68.32" cy="64.38" r="10.25"/><path class="cls-2" d="M89.2,88.18c-3.4-8.71-6.37-14.31-14.53-15.77a10.19,10.19,0,0,1-12.7,0c-8.16,1.46-11.14,7.06-14.53,15.77a3.87,3.87,0,0,0,3.61,5.27H85.58A3.88,3.88,0,0,0,89.2,88.18Z"/><circle class="cls-2" cx="131.68" cy="64.38" r="10.25"/><path class="cls-2" d="M152.56,88.18c-3.39-8.71-6.37-14.31-14.53-15.77a10.19,10.19,0,0,1-12.7,0c-8.16,1.46-11.13,7.06-14.53,15.77a3.88,3.88,0,0,0,3.62,5.27H149A3.87,3.87,0,0,0,152.56,88.18Z"/><path class="cls-2" d="M140.57,93.45a42,42,0,0,1,.69,7.48,41.27,41.27,0,0,1-23.82,37.4"/><path class="cls-2" d="M78.46,65.74a41.25,41.25,0,0,1,43.08,0"/><path class="cls-2" d="M59.43,93.45a42,42,0,0,0-.69,7.48,41.27,41.27,0,0,0,23.82,37.4"/></g></g></svg>