<svg xmlns="http://www.w3.org/2000/svg" viewBox="0 0 200 200"><defs><style>.cls-1{fill:#f6bb43;}.cls-2{fill:none;stroke:#fff;stroke-linecap:round;stroke-linejoin:round;stroke-width:3px;}</style></defs><title>Icon_Wirtschaft C</title><g id="wirtschaft-c"><circle id="fill" class="cls-1" cx="100" cy="100" r="100"/><g id="lines"><path class="cls-2" d="M159.21,138.1c0,3.32-5.82,6-13,6s-13-2.69-13-6v8.77c0,3.31,5.82,6,13,6s13-2.69,13-6V138.1Z"/><ellipse class="cls-2" cx="146.22" cy="129.34" rx="12.99" ry="6"/><path class="cls-2" d="M159.21,129.34c0,3.32-5.82,6-13,6s-13-2.68-13-6v8.76c0,3.32,5.82,6,13,6s13-2.69,13-6v-8.76Z"/><path class="cls-2" d="M136,102.37l-.73.29Z"/><path class="cls-2" d="M115.09,99.93a6.17,6.17,0,0,0,.79.84A6.17,6.17,0,0,1,115.09,99.93Z"/><path class="cls-2" d="M127.31,121.43c7.18,0,13-2.68,13-6v-8.76a3,3,0,0,1-.26,1.21,4.16,4.16,0,0,1-.76,1.13,6.8,6.8,0,0,1-1.2,1,10.22,10.22,0,0,1-1.58.89,24.87,24.87,0,0,1-18.38,0,10.83,10.83,0,0,1-1.59-.89,7.1,7.1,0,0,1-1.19-1,4.16,4.16,0,0,1-.76-1.13,3,3,0,0,1-.26-1.21v8.76C114.32,118.75,120.13,121.43,127.31,121.43Z"/><path class="cls-2" d="M133.22,129.34h0c0-2.33,2.88-4.34,7.08-5.34v-8.57c0,3.32-5.81,6-13,6s-13-2.68-13-6v8.77c0,3.31,5.81,6,13,6a25.8,25.8,0,0,0,5.91-.67v-.19Z"/><path class="cls-2" d="M127.31,121.43c7.18,0,13-2.68,13-6h0c0,3.32-5.81,6-13,6s-13-2.68-13-6h0C114.32,118.75,120.13,121.43,127.31,121.43Z"/><path class="cls-2" d="M133.22,138.1v-8.56a25.82,25.82,0,0,1-5.91.66c-7.18,0-13-2.69-13-6V133c0,3.31,5.81,6,13,6a25.82,25.82,0,0,0,5.91-.66v-.2Z"/><path class="cls-2" d="M133.22,138.3a25.82,25.82,0,0,1-5.91.66c-7.18,0-13-2.68-13-6v8.76c0,3.32,5.81,6,13,6a26,26,0,0,0,5.93-.67c0-.07,0-.13,0-.19Z"/><path class="cls-2" d="M115.09,99.93a6.17,6.17,0,0,0,.79.84,11,11,0,0,0,3.16,1.77,25.68,25.68,0,0,0,16.19.12l.73-.29a11.09,11.09,0,0,0,2.28-1.23,4.16,4.16,0,0,0,2.06-3.23c0-3.32-5.81-6-13-6s-13,2.68-13,6a3,3,0,0,0,.26,1.21A3.91,3.91,0,0,0,115.09,99.93Z"/><polygon class="cls-2" points="114.32 97.91 114.32 97.91 114.32 97.91 114.32 97.91"/><path class="cls-2" d="M115.34,109a7.1,7.1,0,0,0,1.19,1,10.83,10.83,0,0,0,1.59.89,24.87,24.87,0,0,0,18.38,0,10.22,10.22,0,0,0,1.58-.89,6.8,6.8,0,0,0,1.2-1,4.16,4.16,0,0,0,.76-1.13,3,3,0,0,0,.26-1.21V97.91a4.16,4.16,0,0,1-2.06,3.23,11.09,11.09,0,0,1-2.28,1.23l-.73.29a25.68,25.68,0,0,1-16.19-.12,11,11,0,0,1-3.16-1.77,6.17,6.17,0,0,1-.79-.84,3.91,3.91,0,0,1-.51-.81,3,3,0,0,1-.26-1.21v8.76a3,3,0,0,0,.26,1.21A4.16,4.16,0,0,0,115.34,109Z"/><path class="cls-2" d="M138.08,110a10.22,10.22,0,0,1-1.58.89A10.22,10.22,0,0,0,138.08,110Z"/><path class="cls-2" d="M118.12,110.91a10.83,10.83,0,0,1-1.59-.89A10.83,10.83,0,0,0,118.12,110.91Z"/><path class="cls-2" d="M140,107.88a4.16,4.16,0,0,1-.76,1.13A4.16,4.16,0,0,0,140,107.88Z"/><path class="cls-2" d="M140.3,106.67h0a3,3,0,0,1-.26,1.21A3,3,0,0,0,140.3,106.67Z"/><path class="cls-2" d="M115.34,109a4.16,4.16,0,0,1-.76-1.13A4.16,4.16,0,0,0,115.34,109Z"/><path class="cls-2" d="M114.32,106.67h0a3,3,0,0,0,.26,1.21A3,3,0,0,1,114.32,106.67Z"/><path class="cls-2" d="M119,102.54a11,11,0,0,1-3.16-1.77A11,11,0,0,0,119,102.54Z"/><path class="cls-2" d="M138.24,101.14a11.09,11.09,0,0,1-2.28,1.23A11.09,11.09,0,0,0,138.24,101.14Z"/><path class="cls-2" d="M114.32,97.91h0a3,3,0,0,0,.26,1.21A3,3,0,0,1,114.32,97.91Z"/><path class="cls-2" d="M119,102.54a25.68,25.68,0,0,0,16.19.12,25.68,25.68,0,0,1-16.19-.12Z"/><path class="cls-2" d="M115.09,99.93a3.91,3.91,0,0,1-.51-.81A3.91,3.91,0,0,0,115.09,99.93Z"/><polygon class="cls-2" points="133.24 129.53 133.24 129.53 133.24 129.53 133.24 129.53 133.24 129.53"/><path class="cls-2" d="M133.24,129.53h0Z"/><polygon class="cls-2" points="133.22 129.34 133.22 129.34 133.22 129.34 133.22 129.34"/><path class="cls-2" d="M133.22,129.34a1.11,1.11,0,0,0,0,.19h0a1.11,1.11,0,0,1,0-.19Z"/><path class="cls-2" d="M133.22,129.34v.19h0A1.11,1.11,0,0,1,133.22,129.34Z"/><path class="cls-2" d="M133.26,129.78a1,1,0,0,1,0-.25h0A1,1,0,0,0,133.26,129.78Z"/><line class="cls-2" x1="138.33" y1="42.26" x2="111.41" y2="71.25"/><line class="cls-2" x1="138.33" y1="42.26" x2="124.29" y2="44.88"/><line class="cls-2" x1="138.33" y1="42.26" x2="136.76" y2="56.46"/><polyline class="cls-2" points="111.41 71.25 103.08 57.25 88.83 79.41 78.14 77.36 65.73 95.58 53.8 87.25 38.57 105.73"/><path class="cls-2" d="M106.2,114.29c0,3.31-5.81,6-13,6s-13-2.69-13-6v8.76c0,3.32,5.81,6,13,6s13-2.68,13-6v-8.76Z"/><path class="cls-2" d="M106.2,123.05c0,3.31-5.81,6-13,6s-13-2.69-13-6v8.76c0,3.32,5.81,6,13,6s13-2.68,13-6v-8.76Z"/><path class="cls-2" d="M106.2,131.82c0,3.31-5.81,6-13,6s-13-2.69-13-6v8.76c0,3.31,5.81,6,13,6s13-2.69,13-6v-8.76Z"/><path class="cls-2" d="M106.2,140.58c0,3.31-5.81,6-13,6s-13-2.69-13-6v8.76c0,3.32,5.81,6,13,6s13-2.68,13-6v-8.76Z"/><ellipse class="cls-2" cx="93.21" cy="105.53" rx="12.99" ry="6"/><path class="cls-2" d="M106.2,105.53c0,3.31-5.81,6-13,6s-13-2.69-13-6v8.76c0,3.31,5.81,6,13,6s13-2.69,13-6v-8.76Z"/></g></g></svg>