<svg xmlns="http://www.w3.org/2000/svg" viewBox="0 0 200 200"><defs><style>.cls-1{fill:#79a1ad;}.cls-2{fill:none;stroke:#fff;stroke-linecap:round;stroke-linejoin:round;stroke-width:3px;}</style></defs><title>Icon_Einwanderung C</title><g id="einwanderung-c"><circle id="fill" class="cls-1" cx="100" cy="100" r="100"/><g id="lines"><path class="cls-2" d="M141.22,139.18a2,2,0,0,1-1.65-1.93l-.92-.68-1.88,1.08-1.24-.64,0-.41a22.81,22.81,0,0,1-5.14-2.48h0c.36.36.31.83-.14,1.4-11.74,5.06-5.88-7.25-3.5-13.42-3.76-1.34-8-2-9.88-5-3.74-3.93-4-14.48-1.8-18.8-1.89-4.47-1-7.76,4.41-7.6a7.32,7.32,0,0,0,1.49-4c-2.21-1.25-2.08-2.59.33-3.66l.78-5.62c-1.76-4.57,3.24-6.75,7.22-3.47a1.49,1.49,0,0,1,1.86.72l.08-.3c-1.71-2.27-.8-3.38,2.18-3.34L133,68l-1.07.23L131.06,67l1.51-2.36-1.35-2.58.88-1.2c4.22-.21,7.77.56,8.28,4.16l.81.43a14,14,0,0,1,5.8.34l.45,1.43a2.74,2.74,0,0,1-1.33,2.51,1.62,1.62,0,0,1,2,.3l.39-.73h0l-.08-.2c4.62-2.88,8.23-3,12.08,1l1.23-.46,1.11.93c2.93,4.57,12.9,31.21,4.51,30.59-2.81,3.65-7.86,6.24-11.86,8.82a2.28,2.28,0,0,1,1.07,2.91.74.74,0,0,1,0,.77l9.2,10.13-.28,1.31-2.09.92c-.1,2-1.68,3.31-3.79,3.89l1,3.47.62.12c-.24,3.71-2.29,4.08-5.49,1.74-3.31,2-6.67,2.93-9.64,1.27l-2.67.09A2.33,2.33,0,0,1,141.22,139.18Z"/><line class="cls-2" x1="100.11" y1="100" x2="75.1" y2="100"/><line class="cls-2" x1="100.11" y1="100" x2="87.6" y2="90.73"/><line class="cls-2" x1="100.11" y1="100" x2="87.6" y2="109.27"/><circle class="cls-2" cx="46.3" cy="92.47" r="8.2"/><path class="cls-2" d="M63,111.51c-2.72-7-5.1-11.45-11.63-12.62a8.15,8.15,0,0,1-10.17,0c-6.53,1.17-8.91,5.65-11.62,12.62a3.1,3.1,0,0,0,2.89,4.22H60.11A3.11,3.11,0,0,0,63,111.51Z"/></g></g></svg>