<?xml version="1.0" encoding="utf-8"?><svg xmlns="http://www.w3.org/2000/svg" viewBox="0 0 200 200"><defs><style>.cls-1{fill:#db4453;}.cls-2{fill:none;stroke:#fff;stroke-linecap:round;stroke-linejoin:round;stroke-width:3px;}</style></defs><title>Icon_Soziales &amp;amp; Arbeit -C</title><g id="soziales-c"><circle id="fill" class="cls-1" cx="100" cy="100" r="100"/><rect class="cls-2" x="51.2" y="47.64" width="15.55" height="81.97"/><path class="cls-2" d="M127.21,138.14c0-.11,0-.22,0-.34"/><line class="cls-2" x1="127.18" y1="138.15" x2="127.18" y2="137.8"/><path class="cls-2" d="M127.21,138.14h0"/><line class="cls-2" x1="127.18" y1="138.15" x2="127.18" y2="138.15"/><path class="cls-2" d="M127.21,129.46h0"/><line class="cls-2" x1="127.18" y1="129.47" x2="127.18" y2="129.47"/><path class="cls-2" d="M127.21,138.14c0-.11,0-.22,0-.34"/><path class="cls-2" d="M127.21,129.46h0"/><path class="cls-2" d="M127.21,129.46a2.85,2.85,0,0,1,0-.29v.3"/><path class="cls-2" d="M127.21,138.14h0"/><line class="cls-2" x1="127.18" y1="137.8" x2="127.18" y2="137.8"/><path class="cls-2" d="M127.18,129.47a25.73,25.73,0,0,1-5.9.66c-7.11,0-12.87-2.66-12.87-5.94"/><path class="cls-2" d="M127.18,129.47h0"/><line class="cls-2" x1="108.41" y1="115.51" x2="108.41" y2="124.19"/><line class="cls-2" x1="127.21" y1="129.46" x2="127.21" y2="129.46"/><path class="cls-2" d="M127.18,129.47h0"/><line class="cls-2" x1="127.21" y1="129.46" x2="127.21" y2="129.46"/><path class="cls-2" d="M127.18,138.15h0"/><path class="cls-2" d="M127.18,138.15a25.73,25.73,0,0,1-5.9.66c-7.11,0-12.87-2.66-12.87-5.94v-8.68"/><path class="cls-2" d="M108.41,124.19c0,3.28,5.76,5.94,12.87,5.94a25.73,25.73,0,0,0,5.9-.66l0,8.67h0"/><line class="cls-2" x1="127.21" y1="138.14" x2="127.21" y2="138.14"/><line class="cls-2" x1="108.41" y1="124.19" x2="108.41" y2="124.19"/><line class="cls-2" x1="127.21" y1="138.14" x2="127.21" y2="138.14"/><path class="cls-2" d="M127.18,138.15a25.71,25.71,0,0,1-5.9.67c-7.11,0-12.87-2.67-12.87-5.95v8.68c0,3.29,5.76,5.95,12.87,5.95a26.07,26.07,0,0,0,5.94-.67"/><line class="cls-2" x1="108.41" y1="115.51" x2="108.41" y2="115.51"/><ellipse class="cls-2" cx="121.22" cy="106.9" rx="12.81" ry="5.92"/><path class="cls-2" d="M134,106.9c0,3.26-5.74,5.91-12.81,5.91s-12.81-2.65-12.81-5.91v8.64c0,3.26,5.73,5.91,12.81,5.91S134,118.8,134,115.54V106.9Z"/><line class="cls-2" x1="134.03" y1="115.54" x2="134.03" y2="123.93"/><g id="lines"><path class="cls-2" d="M152.8,137.8c0,3.27-5.74,5.92-12.81,5.92s-12.81-2.65-12.81-5.92v8.64c0,3.27,5.73,5.92,12.81,5.92s12.81-2.65,12.81-5.92V137.8Z"/><ellipse class="cls-2" cx="139.99" cy="129.17" rx="12.81" ry="5.92"/><path class="cls-2" d="M152.8,129.17c0,3.26-5.74,5.91-12.81,5.91s-12.81-2.65-12.81-5.91v8.63c0,3.27,5.73,5.92,12.81,5.92s12.81-2.65,12.81-5.92v-8.63Z"/></g><polyline class="cls-2" points="147.2 124.28 147.2 67.95 119.06 90.34 119.06 90.34 119.06 67.95 90.91 90.34 90.91 67.95 66.76 91.32 66.76 129.61 108.41 129.61"/></g></svg>