<?xml version="1.0" encoding="utf-8"?><svg xmlns="http://www.w3.org/2000/svg" viewBox="0 0 200 200"><defs><style>.cls-1{fill:#4fc0e8;}.cls-2{fill:none;stroke:#fff;stroke-linecap:round;stroke-linejoin:round;stroke-width:3px;}</style></defs><title>Icon_Sicherheit &amp;amp; Verteidigung - C</title><g id="sicherheit-c"><circle id="fill" class="cls-1" cx="100" cy="100" r="100"/><rect class="cls-2" x="75.04" y="94.56" width="48.52" height="40.8"/><path class="cls-2" d="M80,85.54c0-13.4,8.62-21.7,19.26-21.7s19.25,8.3,19.25,21.7"/><polyline class="cls-2" points="118.56 84.61 118.56 94.56 80.04 94.56 80.04 84.61"/><path class="cls-2" d="M105.21,112a5.91,5.91,0,1,0-8.47,5.32V125h5.11v-7.76A5.9,5.9,0,0,0,105.21,112Z"/><path class="cls-2" d="M98.25,174.09s32.08-18.28,41-39.58c11.56-27.69,7.11-84.83,7.11-84.83l-48.13,0-48.14,0s-4.44,57.13,7.12,84.83c8.9,21.3,41,39.58,41,39.58Z"/></g></svg>